<?xml version="1.0" encoding="UTF-8"?>
<!-- Created with Inkscape (http://www.inkscape.org/) -->
<svg width="729.6" height="657.6" version="1.1" viewBox="0 0 729.6 657.6" xmlns="http://www.w3.org/2000/svg" xmlns:cc="http://creativecommons.org/ns#" xmlns:dc="http://purl.org/dc/elements/1.1/" xmlns:rdf="http://www.w3.org/1999/02/22-rdf-syntax-ns#"><metadata><rdf:RDF><cc:Work rdf:about=""><dc:format>image/svg+xml</dc:format><dc:type rdf:resource="http://purl.org/dc/dcmitype/StillImage"/><dc:title/></cc:Work></rdf:RDF></metadata><path d="m326.34 654.18v-.38491l-3.8668-23.764-.47557-6.8-.47556-6.8 1.4478-16 1.3411-8.8 1.3411-8.8 2.0052-7.6 2.0052-7.6 3.9957-12 3.972-10.4 9.079-21.6 28.631-57.6 5.9877-12.8 1.612-3.6 1.612-3.6 4.9881-11.468.01-1.3318 1.0281-2 1.0281-2 2.4844-7.2 2.4844-7.2 2.2826-7.2 2.2826-7.2-.093-16.8-1.7535-4.2296-1.7535-4.2296 8e-4-.97038 8e-4-.97039 9.9978-3.015 5.9772-1.166 3.792 4.981 1.7954 3.525 1.7954 3.525 1.9106 7.675 1.9105 7.675.009 9.7119.009 9.7119-3.2406 15.75-5.5594 17.197v1.7733l10-5.4691 9.3521-11.075 9.0479-12.729 4.2817-7.7106 3.9762-12.361.84572-8.2224-.67637-4.7851-.67639-4.7852-4.432-9.0514-7.7615-7.2599-5.3787-2.548-5.3777-2.548-19.2.012-11.829 3.7042-8.5623 4.8323-8.1844 7.3585-6.2778 8.4979-4.8353 10.447-2.1596 5.949-3.6474 8-.65734-2.8-.65735-2.8-3.2464-29.445-.90904-1.4709-1.8587-10.942-1.8587-10.942-3.967-15.2-1.6162-6.4-1.6162-6.4-4.1543-12.8-2.1697-4.8-5.7047-12.8-1.9552-3.6747-1.9552-3.6747-2.2004-3.5253-2.2004-3.525-16.977-16.934-19.194-12.645 2.8334-.54565 11.561 4.3134 13.6 7.2237 6.4 4.4142 10.911 9.6622 9.6438 10.911 11.297 16 10.032 17.916 6.4679 13.614.51269 2.0428.5127 2.0427.61789.38187.61789.38188 18.331-5.394 19.056-2.7639 8.8.93682 9.3395 2.4582 12.026 5.5562 9.8348 6.6128 8.5409 8.215 6.9051 9.6 4.0003 8.8.84022 3.2.84021 3.2.75007 4.8.75005 4.8-.59091 3.8285-.59091 3.8285 1.5206.93981 13.949-14.197 9.2243-14.058 9.9302-19.542 9.3641-22h1.3665v8.7122l-1.6093 11.044-1.6093 11.044-1.6897 6-1.6897 6-5.6646 17.499-3.3374 5.7477-16.684 22.353-4.7615 5.6-34.555 33.43-19.2 16.073-14.843 13.697-21.157 23.044-13.387 16.956-9.8003 14.4-10.078 16.8-9.3852 18.4-7.5134 18.4-2.3189 7.0397-2.3189 7.0397-4.0984 16.321-1.5063 8.4-1.5063 8.4-1.8436 7.1451-1.8436 7.145-2 .64323zm85.356-33.926-1.3197-7.822-.33153-6-.33152-6 .67503-9.6.67504-9.6 1.2159-10.4 1.2159-10.4.44991-3.8.44992-3.8h-1.4479l-5.7673 6-22.596 35.2-2.1283 2.2276-.54853-2.9239-.54852-2.9239.55982-4.5899.55981-4.5899 3.1541-10.4 2.1037-5.6 2.1037-5.6 8.6681-21.6 11.549-22.4 11.049-17.577 11.852-16.023 24.982-24.855 16.8-11.34 14.498-7.2697 10.105-4.1062 15.139-4.0295h11.021l10.397 3.9133 9.69 6.5804 3.5846 4.5532 3.5846 4.5532 3.4005 8.8.38476 4.1466.38475 4.1466-3.6179 19.627-4.5807 12.551-4.0446 7.9817-5.3628 8.3468-6.8997 7.805-9.3666 7.795h-19.038l-8.0998-1.7371-8.7699-8.0152-5.09-10.648-.35455-6.066-.35456-6.066.87102-4.0614.87102-4.0614 4.0954-8.5452 2.3147-2.7949 2.3148-2.7949.84805.84805-2.4918 8.5004.59202 11.724 4.8676 6.1174 7.0463 3.6h4.976l7.7967-2.6566 12.219-12.143 5.2229-9.6 3.8467-11.08v-9.8465l-6.0504-8.6733-8.7496-5.2444-6.4-1.7464-13.6.92637-13.6 4.2218-12.8 6.5453-12.8 8.3499-11.175 9.4033-7.6761 9.5282-5.5076 11.216-3.1613 10.4-.83395 5.2-.83393 5.2.1772 20 .50535 2.1697.50535 2.1697 12.693-8.7393h1.3069v16.642l12.47-6.1124 9.5297-2.4125 12-1.9551 12.8 2.6101 9.854 4.9936 6.946-1.1455 9.5095-3.9704 9.2284-6.2669 9.592-7.9826h1.0435l-1.0554 4.2049-5.2554 8.1951-8.6627 7.3144-8.8 6.361-16 9.3488-8 4.9064-7.2 5.642-10.209 8.8063-9.9562 12.821-15.741 28.4h-.9696l.26021-5.4.2602-5.4 1.503-12 .82212-11.2.82214-11.2.20923-3.7921.20923-3.792-3.2103.96655-5.6 3.3056-5.7968 4.4855-8.8219 10.827-7.0849 12.859-3.01 7.5706-3.01 7.5706-3.3961 8.8-.50216.62204-.50216.62203zm137.04-59.431v-.91804l3.9077-9.8729 4.7445-15.2 3.3101-11.2 3.9714-16.8 4.461-25.6-.01-46.4-4.4065-21.15-.84035-2.2103-.84035-2.2103-6.9279-27.229-2.8812-6.0298-1.4412.4804-11.493 22.349-7.0923 11.2-7.5479 10.466-18.915 1.9302-6.3148 1.0645 6.5339-7.8604 8.7449-12.8 8.3038-15.47 4.0684-10.13 3.9916-11.2 4.5566-17.713.86503-6.3434.86502-6.3434.67428-10.4.67427-10.4-.67598-9.6-.67599-9.6-.88267-6-.88266-6-5.6344-20.8-.39987-2-.39986-2 3.328 3.2 13.874 28 9.5366 20.8 8.4363 20.8 8.1594 24 2.6371 10.4 3.8691 17.6 1.517 8.7281.92148 10.422.92147 10.422.9752 2.8141.97518 2.8141 3.5388-15.2.4359-13.2.43589-13.2-1.7035-19.2-4.0625-26.4-1.5179-6.9226-1.5179-6.9226-2.0732-5.2825-2.0732-5.2825-4-10.4-3.8505-9.9898-12.32-31.2-3.9851-10.4-1.902-4.8548-1.902-4.8548-.50351-3.1488-.5035-3.1488.94125-5.1907.94126-5.1907 1.1907-2.8057 1.1907-2.8058 4.8452 5.6 12.618 18.877 8.0568 14.604 6.5694 14.518 5.1567 12.8 4.9151 15.2 2.4377 8.8 2.3724 11.21 2.3724 11.21.90163 9.9905.90162 9.9904 1.1635 10 1.1635 10 1.6552 27.793-.86584 13.703-.86584 13.703-1.966 12.4-1.966 12.4-4.0582 16.8-3.2783 11.2-2.6633 8-2.6633 8-7.2533 17.981-11.82 24.419-13.168 22.4-3.483 3.7564-4.4 3.1525v-.91803zm-345.6-15.759-6.6034-7.0316-11.518-15.2-10.144-15.133-7.9812-13.667-9.3536-16.597v-.72612l-9.7559-17.506-10.11-22.269-3.6648-10.912-3.6648-10.912-2.7229-10.939-2.7229-10.939-3.2905-18.4-1.9505-19.2.0542-39.2 2.68-24.636.65708-1.0632 2.4708-15.355 4.154-16.546 2.2583-7.6514 2.2583-7.6513 4.7967-13.59 3.7614-9.1536 3.7614-9.1536 10.492-20.8 9.5394-16 8.5343-12.328 9.1559-12.381 13.858-16.091 22.372-21.71 20.679-16 11.2-7.1703 12-5.0589 14.4-4.7414 11.2-3.2907 15.185-3.4601 15.215 2.0833 4 1.2112-4.2248.13752-15.775 4.0552-12.8 4.184-22.4 10.79-15.2 10.067-16 13.072-18.4 19.105-11.335 15.127-6.3924 9.6-4.0714 6.4-7.8389 14.4-5.0176 10.4-5.9945 14.4-3.8068 10.4-4.9099 16-3.7884 15.515-4.1531 24.485-.46313 9.705-.46313 9.705 11.834-2.1323 15.2-3.9039 13.894-4.0912 13.306-4.7312 7.2542-3.1462 4.9344-5.62 8.7131-14.185 7.3126-15.2 2.1313-5.3588 2.1313-5.3588 3.0816-8.8628 3.0816-8.8629 1.8987-2.2878 15.65-8.7413 6.6219-1.984.95187.95187-1.9041 11.704-2.9912 13.6-5.702 29.6-2.4886 10.196 1.3239 1.2984 14.962 2.5829 13.038 4.0674 7.1018 4.0994 16.588 13.543 8.1227 11.413 9.4322 19.533 3.9316 12.044 1.6688 9.0116 1.6688 9.0116 1.8146 12 .00148 55.2-.93632 7.6-.93634 7.6-1.2573 10.375-1.2573 10.375-.47088 2.025-.47089 2.025-3.8506 13.6-3.2084 8.6154-3.2494 7.3846-9.713 19.2-3.624 5.3426-1.0062-14.143-.74783-7.6-.74781-7.6-.53499-7.4633-.535-7.4633-.9956 1.0633-.9956 1.0633-7.5942 17.6-4.7135 12-3.1766 8.8-8.3104 19.067-1.7754.59178-.58263-15.305-.58263-15.305-.68492-4.5245-.68493-4.5246-1.2263-6.7139-1.2263-6.714-1.2285-1.8749-1.2285-1.8749-1.9584-1.2832-1.9584-1.2832-5.4674 1.8044-1.3894 1.5353-1.3894 1.5353-3.0208 10.869-2.2879 10.4-4.6804 14.4-2.8545 6-2.8546 6-5.2369 7.2-2.1257-9.6-3.7963-17.6-1.3709-6.3622-1.3709-6.3623-13.109-25.675-5.2116-13.198-2.3233-7.4325-2.3233-7.4326-2.6244-11.936-1.3857-6.4-.79644-11.723-.79645-11.723.76531-10.677.76529-10.677 4.0923-16 4.6928-13.177 3.8729-7.6429 8.0652-13.279.34065-.95053.34066-.95054.43453.4.43452.4-4.5972 24.8-.0526 28 3.2215 25.38 2.4134 9.5593 2.4134 9.5593 4.8426 10.249 6.9647 9.4609 5.5799 4.256 2.3458.67277 2.3458.67279 4.752-1.998 4.3244-5.1392 6.5843-11.473 4.0954-6.0948.54618 1.0474.54617 1.0474 2.1533 8 2.1533 8 1.978 5.2687 1.978 5.2687 2.3238 2.2264 2.3238 2.2264 5.314-3.7314.94795-1.2294.94796-1.2294 1.5721-3.2 1.5721-3.2 3.2598-7.2 4.65-14.184 4.65-14.184 2.702-.0316.87718 6.8.88742 10.8.88743 10.8.59176 1.066.59176 1.066 4.27-11.732 3.1925-16.797.004-34.403-1.7248-10.6-1.7248-10.6h-.99238l-7.1613 9.8916-14.4 14.61-10.4 7.3306-18.4 10.213-11.392 4.4147-14.721 3.9396-8.433.99113-1.3888-10.295-1.3888-10.295.5234-12.618 18.911-3.808 9.8892-4.1419 10.4-5.74 14.4-14.539 6.1158-11.152 2.2842-8.7362v-6.0813l-3.438-7.314-8.0981-8.8606-5.8737-3.7079-9.3902-2.8231-19.2.0276-8.8 2.0062-9.6 3.2671-16.296 7.9759-16.514 13.23-10.465 11.817-8.397 11.674-3.5346 6.8692-3.5346 6.8691-4.8789 12.777-4.3238 16.211-.0562 32.267 1.32 1.32.68186-1.1933.68186-1.1933 12.993-16.8 12.337-10.512 3.5437-.92671.49431 2.9196.4943 2.9196.72239 2.8.7224 2.8.005 4.569.005 4.569-3.2639 14.062-5.7491 16-2.3282 8.8-2.3282 8.8.39578 10 .39577 10 4.027 23.2 1.9615 7.2 1.9614 7.2 7.1776 20 3.5138 8 4.7207 10.182-.34038.34037-.34036.34038-6.6034-7.0316zm254.46-200.57-9.1105-9.1364.0734-2.5822.0734-2.5822 3.132-3.2814 3.132-3.2814 5.527-7.4251 8.2343-16.575 5.3467-12.544 1.466-.108 1.5244 2.0417 1.5244 2.0417 1.5584 21.369-.44979 10-.4498 10-1.2557 5.2-1.2557 5.2-6.4052 10.8h-3.5546l-9.1105-9.1364zm-70.423-17.205-.83584-2.0582-1.6049-8.6184v-16.466l.83735-6.2579.83734-6.2579 1.6598-5.2 1.6598-5.2 4.899-8.8 7.3068-9.9673 2.0502-.0326.48005 1.251.48007 1.251-1.9469 4.2729-1.9904 8.8125-1.9904 8.8125-.45204 11.644-.45204 11.644 1.6451 8.3561 1.6451 8.3561.35695 2.212.35694 2.212-3.3827.75019-10.723 1.3421-.83584-2.0582zm-16.065-38.422-2.8239-1.4934-7.2118-7.7425-7.5907-12.215-9.6965-21.385-5.6152-12-4.4298-12.135-3.3159-15.865-.32506-5.6.11629-2.0471.11629-2.0471 2-2.6492 28.8 3.5682.56022 13.988.56022 13.988.76116 4.8.76117 4.8 2.0663 11.2 2.0663 11.2 4.001 19.2 3.0132 14-.9895-.0708-2.8239-1.4934zm115.26-6.4862-5.967-1.5622-5.7657-3.0052-27.9.78593-44.175-44.568-.51243-2.7-.51244-2.7v-10.371l-11.6-11.985-10.4-7.932-17.896-8.7696-12.245-2.3428h-14.955l-4.1354-1.5723-18.433-1.7999-16.336 1.8589-21.062 3.9946-11.809 3.6435-18.794 12.411-12.334 9.7325-17.846 15.758-23.972 25.974-8.3205 10h-.78865l1.1418-5.2 4.4506-13.6 4.2299-10.203 8.0652-15.279 2.76-4.1182 5.3515-8 8.928-11.2 16-16.576 12-9.6934 16.143-10.66 19.857-9.6757 15.2-4.8897 13.6-3.2746 15.2-1.6427 7.8439-.38749 1.4341-5.2 1.4341-5.2 5.0626-10.4 7.2664-10.842 9.9202-9.2798 10.571-5.8104 9.1482-2.3889.65992.40785.65991.40785v2.1949l-13.608 12.511-5.2811 8-1.895 5.2-1.895 5.2.0224 12.8 1.8149 5.9777 1.8149 5.9777 6.3576 11.245 6.6688 8.6681 11.05 9.5116 8.1501 5.154 12.289 5.0663h7.1651l24.504-12h1.1713l-1.0758 3.0492-1.0758 3.0492-1.758 3.9508-1.758 3.9508-8.0155 16 .4079 4.0902.40789 4.0902 4.3248 8.6197 11.176 15.725 2.7098 5.865 2.7098 5.865 2.1805 2.5914 2.1805 2.5914 6.2974 4.5618h11.563l3.2139-7.6.55136-1.8185.55138-1.8185-6.9196-2.924-7.5545-2.7539-3.8201-4.54-.52553-3.9616-.52552-3.9616.81964-5.9109.81965-5.9109 2.4399-8.4 2.4399-8.4 4.2705-11.072 2.9433-3.3278-.50526 2.4-.50527 2.4-.4426 7.3724-.44261 7.3724.50605 2.6974.50604 2.6974 5.8982 6.8908 8.7085 3.8513 10.007.93447 8.0876-7.565.98674-2.9256.98674-2.9256-.14993-6-.14994-6-.78513-25.6-.78515-25.6-.51636-10.8-.51635-10.8 1.6309 1.6 7.5729 14.8h1.2123l6.5655-6.5655 4.825-8.4333 3.4937-10.201-.007-11.6-.007-11.6-4.2017-13.213-5.9545-11.331-4.063-4.231-4.0623-4.231-9.5779-3.5129-7.2221-1.472-24.8-.91425-3.8295 2.1051-1.5464 2.8-1.5464 2.8.39891 11.2.39889 11.2 1.1778 5.6 1.1777 5.6.43422 3 .43423 3h-2.4801l-11.55-11.6-6.1173-9.6-15.639-31.2-5.2241-8-6.0896-7.422v-1.663l9.1764-3.4333 8.3309-2.1699 18.68-2.8081 25.012 1.9909 11.2 1.6563 12 3.2137 11.161 4.8519 8.8387 6.5147 6.9623 7.0428 6.6377-6.3253 5.015-3.4258 8.2444-1.7681 8.3406 1.977 6.5518 4.4745 5.2864 6.0209 1.9959 4.3596 1.9959 4.3596-.062 13.495-5.1779 10.201-2.9998 2.7148-1.1902-1.193v-14.17l-5.4846-5.6642-5.4946-1.8134-8.872.73574-6.7518 7.1461-1.4536 5.9507-1.4536 5.9507-.54113 28-.54114 28-.79814 2.8-.79815 2.8-4.115 9.1821-11.112 11.741-1.1875 28.504.52049 10.487.5205 10.487.164 18.552-4.3968 10.248-11.166 10.492-.42314 3.7541-.42314 3.7541h7.7296l8.8785-9.2 3.5086-7.2 1.6071-10.4.35482-12-1.2918-28.8 3.4291-12.8 4.3009-9.2304 1.4843.49476 5.807 11.886 1.8414.52989 8.5586-6.9752 1.8058-3.1526 1.8058-3.1526 2.6334-8.8-.1622-16.8-1.2912-9.6-1.2912-9.6.0206-9.0347.0205-9.0347 4.2667-9.5074 2.1094-1.7507-.46879 8.2783-.46879 8.2783 1.3043 6.3854 1.3043 6.3855 4.5854 11.2 5.9067 11.72 1.5474 6.1398 1.5474 6.1399.0123 3.369.0123 3.369-3.2473 13.927-5.0361 9.4487-7.3166 6.5079-7.127 3.1981-13.924.79391-1.5644.98657-.87322 12.4-.87321 12.4-3.916 19.2-2.1177 5.8537-2.1178 5.8537-5.356 9.0925-2.8245 3.2794-2.8245 3.2794-10.554 5.0412-2.7282-.0882-5.967-1.5622zm29.254-126.62.0875-.12517.55501-2.3085.55501-2.3085-5.0849 1.017h-3.8502l-.46048 1.2-.46049 1.2.49481 1.2894.49482 1.2894 7.5816-1.1286zm-78.887 9.7839-2-.7895-5.9414-4.0966-3.0988-4.1115-3.0988-4.1115-4.1728-9.6-3.9995-10.4-1.8671-7.5547.32622-8.6226.32623-8.6226 3.6252-8 .66034 1.2.66034 1.2.58379 3.6.58378 3.6 1.8881 5.0469 1.8881 5.0469 6.6682 9.5062h1.4037l12.729-6.4 2.0355-.02 15.37 16.02h5.8201l4.9647-6.8 4.9138-10.921 1.5149 2.707-.31848 10.222-.31847 10.222-6.649 13.371-2.0975 2.7703-9.6-2.3133-8.5168-.057-11.247 8.8-1.0364-.1014-2-.7895zm17-17.233 1.4-.38406v-1.2764l-3.4686-4.4097-5.28-2.2061h-8.8209l-.50458 2.0104-.50456 2.0104 2.0471 2.4666 1.6658.89524 1.6658.89525 4.8 1.1542 5.6-.77176zm-193 2.8247v-2.4591l2.404-5.066 11.596-15.424 11.2-11.802 14.4-12.115 12-8.0039 3.5029-1.8353 1.027 1.6617-12.017 13.47-6.3764 10.918-3.58 10.354-.75762 14.116-4.1709 1.5858-15.228 4.0814-8.8 2.0458-5.2.93091zm92.61-67.512-2.9899-1.0983-6.8202-4.7009-8.467-8.9649-5.5167-11.625-.89309-6.6484-.89308-6.6484.91241-.91242 6.8125 1.7292 1.2205-1.92.0122-2.8531.0122-2.8531 1.7089-9.2441 5.2874-11.45 4.943-6.7023 8.4607-6.3651 5.84-1.0806 11.572 1.7955 10.588 3.3788 8.9616 4.4764 5.3413 4.4944 9.4266 19.855.6814 4.474.68142 4.474.48192 10.4.48191 10.4.87999 6.4605.88 6.4605-1.9402 5.8789h-1.2414l-.94504-5.7224-.94503-5.7224-2.0894-6.4776-2.0894-6.4776-6.143-11.765-3.5234-4.9175-3.5234-4.9175-6.9759-7.4669-5.1205-2.5331h-4.5606l-3.4574 7.1165-.93275 5.3562-.93274 5.3562.39353 10.086.39354 10.086 1.6532 4.8 1.6532 4.8.50129 1.2968.50128 1.2968-2.4486.93963-4.8932-4.1173-4.5461-6.6158-5.3871-17.2h-1.2565l-1.5604 4.1042v11.64l1.6947 6.328 1.6947 6.328.39607 2.2.39606 2.2-1.3816-.1128-2.9899-1.0983z" stroke-width=".8"/></svg>
